<svg  class="logo-bizone logo__v2" x="0px" y="0px" viewBox="0 0 589.5 100" enable-background="new 0 0 589.5 100" xml:space="preserve">
<path fill="var(--col1, #FFFFFF)" d="M219.3,74.6c0,15.2-12,23.9-35.1,23.9h-45.3V10.9h42.8c21.9,0,33.2,9.1,33.2,22.8c0,8.8-4.5,15.5-11.6,19.3C213.1,56.1,219.3,63.6,219.3,74.6z M159.1,26.2v20.7h20.2c9.9,0,15.3-3.5,15.3-10.4s-5.4-10.3-15.3-10.3H159.1z M198.9,72.5c0-7.4-5.6-10.9-16.2-10.9h-23.7v21.7h23.7C193.3,83.3,198.9,80,198.9,72.5z M231,10.9C231,4.8,235.9,0,243.1,0c7.3,0,12.1,4.5,12.1,10.5c0,6.5-4.9,11.3-12.1,11.3C235.9,21.8,231,17,231,10.9z M233.4,31.2h19.5v67.4h-19.5V31.2z M343.4,82v16.5h-76.6V85.4l48.1-58h-47.1V10.9h73.8V24l-48,58H343.4z M349.2,64.9c0-20.3,15.7-34.7,37.1-34.7s36.9,14.4,36.9,34.7c0,20.3-15.5,34.7-36.9,34.7S349.2,85.1,349.2,64.9z M403.4,64.9c0-11.6-7.4-18.7-17.2-18.7c-9.8,0-17.3,7-17.3,18.7c0,11.6,7.5,18.7,17.3,18.7C396,83.5,403.4,76.5,403.4,64.9z M505.1,60v38.6h-19.5V63c0-10.9-5-15.9-13.6-15.9c-9.4,0-16.2,5.8-16.2,18.2v33.3h-19.5V31.2h18.7v7.9c5.3-5.8,13.1-8.9,22.3-8.9C493.1,30.2,505.1,39.4,505.1,60z M589.1,70.4h-51c1.9,8.4,9,13.5,19.3,13.5c7.1,0,12.3-2.1,16.9-6.5l10.4,11.3c-6.3,7.1-15.7,10.9-27.8,10.9c-23.3,0-38.4-14.7-38.4-34.7c0-20.2,15.4-34.7,35.9-34.7c19.8,0,35.1,13.3,35.1,34.9C589.5,66.6,589.2,68.7,589.1,70.4z M537.9,59h33.2c-1.4-8.5-7.8-14-16.5-14C545.7,45,539.3,50.3,537.9,59z"/>
<polygon fill="var(--col2, #9BA1FF)" points="45.7,54.3 91.3,8.7 91.3,100 "/>
<polygon fill="var(--col3, #FDB0FE)" points="45.7,54.3 0,8.7 91.3,8.7 "/>
<polygon fill="var(--col4, #0AF8FF)" points="45.7,54.3 0,100 0,8.7 "/>
</svg>
