<svg class="logo-bizone logo__v1" version="1.1" x="0px" y="0px" viewBox="0 0 249.6 100" enable-background="new 0 0 249.6 100" xml:space="preserve">
<path fill="var(--white-100, #000000)" d="M128.6,69v7.3H99.2v-5.8L116,50.8H99.7v-7.3h28.4v5.8L111.3,69H128.6z M131.8,59.9c0-9.9,7.6-16.9,18.1-16.9c10.5,0,18.1,7,18.1,16.9s-7.6,16.9-18.1,16.9C139.5,76.8,131.8,69.8,131.8,59.9z M158.3,59.9c0-5.7-3.6-9.1-8.4-9.1c-4.8,0-8.4,3.4-8.4,9.1c0,5.7,3.7,9.1,8.4,9.1C154.7,69,158.3,65.6,158.3,59.9z M208,57.5v18.8h-9.5V59c0-5.3-2.4-7.8-6.7-7.8c-4.6,0-7.9,2.8-7.9,8.9v16.3h-9.5V43.4h9.1v3.9c2.6-2.8,6.4-4.3,10.9-4.3C202.2,42.9,208,47.4,208,57.5z M249.1,62.6h-24.9c0.9,4.1,4.4,6.6,9.4,6.6c3.5,0,6-1,8.3-3.2l5.1,5.5c-3.1,3.5-7.6,5.3-13.6,5.3c-11.4,0-18.8-7.2-18.8-16.9c0-9.9,7.5-16.9,17.6-16.9c9.7,0,17.1,6.5,17.1,17.1C249.3,60.7,249.2,61.8,249.1,62.6z M224.1,57h16.2c-0.7-4.2-3.8-6.9-8.1-6.9C227.9,50.1,224.7,52.8,224.1,57z"/>
<path fill="var(--blue-100, #0045D0)" d="M1.4,94.1c-0.6-1.1-0.9-2.2-1.1-3.3c-0.2-1.1-0.2-2.1-0.1-3c0.2-1.8,0.7-3.3,1.2-4.6c1.1-2.6,2.6-4.5,4-6.3c3-3.5,6.2-6.3,9.5-8.8c1.7-1.3,3.3-2.5,5-3.6c1.7-1.2,3.4-2.2,5.1-3.2l2.5-1.6c0.8-0.5,1.7-1,2.6-1.5l2.6-1.5c0.9-0.5,1.7-1,2.6-1.5c7-3.9,14.3-7.3,21.8-10.2l2.8-1c0.9-0.4,1.9-0.6,2.9-1c1.9-0.6,3.9-1.2,5.8-1.7l2.9-0.7c1-0.2,2-0.4,3-0.6c1-0.2,2-0.4,3-0.5c0.5-0.1,1-0.1,1.5-0.2c0.3,0,0.5-0.1,0.8-0.1c0.3,0,0.5,0,0.9-0.1c1.4-0.1,2.5,1,2.6,2.4c0.1,1.3-0.9,2.4-2.1,2.6l-0.2,0l-0.6,0.1c-0.2,0-0.4,0.1-0.7,0.1c-0.4,0.1-0.9,0.2-1.4,0.3c-0.9,0.2-1.8,0.4-2.7,0.7c-0.9,0.2-1.8,0.5-2.7,0.8l-2.7,0.9c-1.8,0.7-3.6,1.3-5.3,2.1c-0.9,0.4-1.8,0.7-2.6,1.1L60,51.3c-6.9,3.2-13.6,7.1-20,11.3c-0.8,0.5-1.6,1.1-2.4,1.6l-2.4,1.6c-0.8,0.6-1.6,1.1-2.4,1.6l-2.3,1.7c-1.5,1.1-3.1,2.3-4.6,3.4c-1.5,1.2-2.9,2.4-4.3,3.6c-2.7,2.4-5.3,5.1-7.2,7.7c-0.9,1.3-1.7,2.7-2,3.7c-0.2,0.5-0.2,0.9-0.2,1.1c0,0,0,0.1,0-0.1c0-0.1,0-0.3-0.1-0.5c1.6,3,0.6,6.7-2.4,8.4S3.1,97.1,1.4,94.1z"/>
<path fill="var(--pink-200, #AA0071)" d="M37.7,32.8c2.1-1.4,4.5-2.4,7.2-3c2.6-0.6,5.5-0.8,8.4-0.2c0.7,0.1,1.5,0.4,2.2,0.6c0.7,0.3,1.4,0.6,2.2,0.9c0.7,0.4,1.4,0.8,2,1.3l0.9,0.8l0.5,0.4c0.1,0.1,0.3,0.3,0.4,0.4c2.3,2.3,3.8,5.2,4.5,8.1c0.7,2.9,0.8,5.9,0.5,8.7l-0.3,2.1l-0.4,2c-0.1,0.7-0.3,1.3-0.5,2c-0.2,0.6-0.4,1.3-0.6,1.9L64,60.5c-0.2,0.6-0.5,1.2-0.8,1.8c-0.5,1.2-1.2,2.3-1.8,3.5c-0.3,0.6-0.6,1.1-1,1.7l-1,1.6c-0.7,1.1-1.5,2.1-2.2,3.1c-3,4.1-6.4,7.7-10.1,11c-0.9,0.9-1.8,1.6-2.8,2.4l-1.4,1.2l-1.5,1.2c-2,1.5-4,3-6.1,4.3c-4.3,2.7-8.9,5.1-14.1,6.5c-1.3,0.4-2.7,0.7-4.1,0.9c-1.4,0.2-3,0.3-4.6,0.3c-1.6-0.1-3.4-0.3-5.4-1.1c-1-0.4-2-1-3-1.8c-1-0.8-2.3-2-3-3.2c-1.5-2.8-2-7.4,0.2-11.1c1.7-2.8,2.9-4.7,3-4.6c-0.1-0.1-0.1,11.6,7.6,10c0.2,0,0.7-0.2,1.3-0.2c1.4-0.4,2.6-0.5,4.3-1.1c1.8-0.6,3.6-1.4,5.4-2.3c1.8-0.9,3.6-1.9,5.4-3.1c1.8-1.1,3.5-2.3,5.2-3.6l1.3-1l1.2-1l1.2-1c0.4-0.3,0.8-0.7,1.2-1.1c3.3-2.8,6.3-5.9,8.9-9.1c0.6-0.8,1.3-1.6,1.9-2.5l0.9-1.3c0.3-0.4,0.6-0.8,0.9-1.3c0.5-0.9,1.1-1.7,1.6-2.6c0.2-0.4,0.5-0.9,0.7-1.3l0.6-1.3c1.6-3.5,2.6-7.3,2.2-10.5c-0.2-1.6-0.7-3-1.6-4.1c-0.1-0.1-0.1-0.2-0.2-0.2l-0.2-0.2c-0.1-0.1-0.2-0.3-0.4-0.4c-0.3-0.2-0.6-0.4-0.8-0.7c-0.3-0.2-0.6-0.4-1-0.6c-0.4-0.1-0.7-0.3-1.1-0.4c-1.5-0.5-3.4-0.7-5.3-0.5c-1.9,0.2-3.9,0.6-6,1l-0.2,0c-1.6,0.3-3.1-0.7-3.4-2.2C36.2,34.6,36.7,33.4,37.7,32.8z"/>
<path fill="var(--pink-100, #DA0071)" d="M24.9,40.4c-2,1.5-4.4,2.6-7.3,2.8c-1.4,0.1-2.9-0.1-4.5-0.6c-1.5-0.6-3-1.6-4.2-2.9c-1.2-1.4-1.9-3.1-2.2-4.7c-0.2-0.8-0.3-1.6-0.3-2.5c0-0.4,0-0.8,0-1.2l0-0.6c0-0.2,0-0.4,0.1-0.6c0.4-3,1.5-5.7,2.8-8c1.3-2.4,2.9-4.4,4.7-6.3c1.7-1.9,3.6-3.6,5.6-5.1L21,9.5l1.5-1c1-0.7,2.1-1.3,3.1-2c1.1-0.6,2.1-1.2,3.2-1.8c1.1-0.5,2.1-1.1,3.3-1.6C34.5,2,37,1.1,39.7,0.6c2.7-0.5,5.5-0.8,8.6-0.4l1.1,0.2c0.4,0.1,0.8,0.2,1.2,0.3c0.8,0.2,1.6,0.5,2.4,0.8c1.6,0.7,3.2,1.7,4.5,3.2c1.3,1.5,2.4,3.3,2.9,5.2c0.5,1.9,0.5,3.8,0.3,5.5c-0.5,3.4-1.8,6-3.2,8.3c-1.5,2.3-3.1,4.3-4.9,6c-1.7,1.8-3.6,3.4-5.5,4.9c-0.9,0.7-1.9,1.4-2.9,2.1c-1,0.7-2,1.3-3,1.9c-1.9,1.2-4.4,0.6-5.6-1.2c-1.1-1.7-0.7-3.9,0.7-5.2l0.1-0.1c3.2-2.9,6.3-5.9,8.9-9c1.3-1.6,2.4-3.2,3.3-4.7c0.8-1.6,1.4-3.1,1.5-4.3c0-0.5,0-1-0.1-1.3c-0.1-0.3-0.2-0.4-0.4-0.6c-0.2-0.2-0.6-0.4-1-0.6c-0.3-0.1-0.5-0.2-0.8-0.3c-0.2,0-0.3-0.1-0.5-0.1c-0.2,0-0.4,0-0.5-0.1c-1.4-0.2-3.1-0.1-4.9,0.2c-1.7,0.4-3.5,0.9-5.3,1.7l-2.8,1.3c-0.9,0.5-1.9,1-2.8,1.5c-0.9,0.5-1.8,1-2.7,1.6L27,18.2L25.8,19c-0.4,0.3-0.8,0.6-1.2,0.9c-0.4,0.3-0.8,0.6-1.2,0.9c-0.8,0.6-1.5,1.3-2.2,1.9c-1.4,1.3-2.7,2.8-3.8,4.2c-1.1,1.5-1.8,3-2.2,4.5c0,0.1-0.1,0.2-0.1,0.3l0,0.3c0,0.2-0.1,0.3-0.1,0.5c0,0.3-0.1,0.6,0,0.9c0,0.6,0.1,1.1,0.4,1.5c0.2,0.4,0.5,0.9,1,1.3c0.1,0.1,0.3,0.2,0.4,0.3c0.1,0.1,0.1,0.1,0.2,0.2l0.3,0.1c0.2,0.1,0.3,0.2,0.5,0.3c0.2,0.1,0.4,0.1,0.6,0.2c1.7,0.7,3.8,1,6.1,1.3l0,0c0.5,0.1,0.9,0.6,0.8,1.1C25.2,40,25.1,40.2,24.9,40.4z M89.2,18.9c-3.6,4.8-4.3,10.4-1.6,12.5c2.7,2.1,7.9-0.2,11.5-5c3.6-4.8,4.3-10.4,1.6-12.5S92.8,14.1,89.2,18.9z M86.3,43.4c0.6-1,0.5-2.3-0.2-3.3c-1-1.2-2.8-1.4-4-0.4c-4.2,3.4-7.5,7.9-9.9,13c-1.1,2.6-2,5.2-2.5,8.1c-0.5,2.8-0.7,5.8-0.4,8.8c0.2,1.5,0.5,3.1,1,4.7c0.6,1.6,1.4,3.3,2.7,4.9c0.7,0.8,1.5,1.6,2.6,2.2c1,0.6,2.2,1.1,3.4,1.3c2.5,0.4,4.8-0.2,6.4-1c1.7-0.8,3-1.9,4.1-3c1.1-1.1,2-2.3,2.7-3.5c0.8-1.2,1.4-2.4,2-3.7c0.6-1.2,1-2.5,1.3-3.8c0.1-0.6,0-1.3-0.4-1.8c-0.7-0.9-2-1-2.9-0.3l0,0c-2,1.6-3.8,3.2-5.6,4.6c-0.9,0.7-1.8,1.3-2.6,1.8c-0.8,0.5-1.6,0.8-2.2,1c-0.3,0.1-0.5,0.1-0.7,0.1c-0.1,0-0.2,0-0.2-0.1c0-0.1,0,0-0.2-0.4c-0.2-0.3-0.6-0.9-0.8-1.6c-0.2-0.8-0.5-1.6-0.6-2.6c-0.2-1.9-0.2-4,0-6.1c0.2-2.1,0.7-4.3,1.3-6.4C81.8,51.6,83.8,47.5,86.3,43.4L86.3,43.4z"/>
</svg>
