<svg  class="logo-bizone logo__v5" x="0px" y="0px" viewBox="0 0 406.2 100" enable-background="new 0 0 406.2 100" xml:space="preserve">
<path fill="#FFFFFF" d="M101.1,39.2h-4.9l-1.6,9h-7.4l5.2-29.6H105c3.1,0,5.3,0.7,6.6,2.1c1,1.1,1.4,2.5,1.4,4.2c0,0.6-0.1,1.2-0.2,1.8l-0.8,4.6c-0.4,2.3-1.6,4.1-3.6,5.6C106.5,38.5,104,39.2,101.1,39.2z M102.4,25h-3.7l-1.4,7.8h3.7c2.2,0,3.6-1,3.9-3l0.3-1.7c0.1-0.2,0.1-0.6,0.1-1s-0.2-0.9-0.6-1.4C104.3,25.3,103.5,25,102.4,25z M125.7,27.8c3,0,5.2,0.6,6.7,1.9c1.2,1,1.8,2.4,1.8,4.2c0,0.6-0.1,1.3-0.2,2l-0.9,4.8c-0.5,2.9-1.7,5-3.6,6.2c-1.9,1.2-4.4,1.8-7.6,1.8c-3.2,0-5.5-0.6-7-1.8c-1.1-0.9-1.6-2.3-1.6-4.1c0-0.6,0.1-1.3,0.2-2.1l0.9-4.8C115.2,30.6,119,27.8,125.7,27.8z M126.8,36.8c0.1-0.3,0.1-0.6,0.1-1c0-0.4-0.2-0.9-0.5-1.4c-0.4-0.5-1-0.8-1.9-0.8c-0.9,0-1.6,0.3-2.2,0.9c-0.6,0.6-1,1.4-1.2,2.4l-0.5,3.1c-0.1,0.3-0.1,0.6-0.1,1c0,0.4,0.2,0.9,0.5,1.4c0.4,0.5,1,0.7,1.9,0.7c0.9,0,1.6-0.3,2.2-0.9c0.6-0.6,1-1.4,1.2-2.2L126.8,36.8z M144.2,41.9c0,0.7,0.4,1.1,1.1,1.1s1.3-0.1,1.8-0.4l-0.2,4.6c-1.3,1.1-2.8,1.6-4.4,1.6c-2.5,0-4.1-0.6-4.9-1.7c-0.5-0.7-0.7-1.5-0.7-2.4s0.1-1.6,0.2-2.3l4.5-25.3h7l-4.3,24.4C144.2,41.5,144.2,41.7,144.2,41.9z M157.6,39.4c-0.1,0.5-0.1,1-0.1,1.5c0,1.3,0.7,2,2.2,2c1.2,0,2.2-0.4,3-1.3l2.3-13.1h7l-3.6,20.4c-0.6,3.5-2,6.2-4.1,8.3c-2.2,2-4.6,3-7.4,3s-4.8-0.5-6-1.5c-1.2-1-1.8-2.3-1.8-4c0-2.3,1.4-4.4,4.3-6.2c-1.6-0.4-2.5-1.2-3-2.3c-0.2-0.7-0.4-1.4-0.4-2.2s0.1-1.7,0.2-2.5l2.3-13h7L157.6,39.4z M157.8,54.3c1.8,0,2.9-1.6,3.5-4.9l0.4-2.4c-3.8,1.8-5.7,3.6-5.7,5.4c0,0.5,0.2,1,0.5,1.3C156.7,54.1,157.2,54.3,157.8,54.3z M203.2,37.3h-10.9l-1.9,10.9h-7.4l5.2-29.6h20.6l-1.2,6.4h-13.2l-1,5.9h10.9L203.2,37.3z M227.7,32.6c0,0.9-0.2,1.8-0.5,2.7c-0.3,0.9-0.6,1.5-0.9,1.9l-0.5,0.6h-6.2c0.7-0.6,1-1.4,1-2.3c0-0.5-0.2-0.9-0.5-1.2c-0.3-0.3-0.7-0.5-1.3-0.5c-0.9,0-1.7,0.5-2.4,1.4l-2.3,13h-7l3.5-19.8h6.5l-0.5,2.8c1.6-2.2,3.5-3.3,5.7-3.3c1.8,0,3.1,0.4,4,1.3C227.3,30,227.7,31.1,227.7,32.6z M237.6,42.9c0.6,0,1.2-0.1,1.7-0.4l-0.2,4.6c-1.3,1.1-2.8,1.6-4.4,1.6c-2.5,0-4.1-0.6-4.9-1.7c-0.5-0.8-0.7-1.6-0.7-2.4s0.1-1.6,0.2-2.3l2.5-13.9h7l-2.3,13c0,0.2,0,0.3,0,0.5C236.3,42.6,236.7,42.9,237.6,42.9z M232.5,21.7c0-1.8,0.4-3,1.2-3.8c0.8-0.8,2-1.2,3.6-1.2c2.3,0,3.5,1,3.5,3c0,1.7-0.4,3-1.2,3.8c-0.8,0.8-2,1.2-3.7,1.2C233.6,24.7,232.5,23.7,232.5,21.7z M250.1,48.8c-5.7,0-8.6-2-8.6-5.9c0-0.5,0.1-1.1,0.2-1.8l0.9-5.1c0.5-2.6,1.7-4.7,3.6-6.1c2-1.4,4.6-2.1,7.8-2.1c5.5,0,8.3,2.1,8.3,6.3c0,0.6-0.1,1.3-0.2,2l-0.5,2.9H249l-0.2,0.9c-0.1,0.3-0.1,0.6-0.1,0.9c0,1.5,0.9,2.3,2.7,2.3c0.7,0,1.2-0.2,1.7-0.6c0.5-0.4,0.7-0.9,0.8-1.4l6.8,0.1C259.9,46.2,256.3,48.8,250.1,48.8z M255,36.4c0.1-0.5,0.2-0.9,0.2-1.3c0-0.4-0.2-0.8-0.5-1.2c-0.4-0.4-0.9-0.6-1.7-0.6c-0.8,0-1.5,0.3-2.1,0.8c-0.6,0.5-1.1,1.3-1.3,2.3H255z M277.7,35.6c0-1.2-0.6-1.8-1.7-1.8s-2.1,0.4-2.8,1.3l-2.3,13.1h-7l3.5-19.8h6.5l-0.5,2.4c1.6-2,3.7-3,6.1-3c2.5,0,4.1,0.6,4.8,1.8c0.5,0.8,0.7,1.6,0.7,2.6c0,1-0.1,1.9-0.2,2.8l-1.1,6.3c0,0.2,0,0.3,0,0.5c0,0.7,0.4,1.1,1.2,1.1c0.6,0,1.2-0.1,1.7-0.4l-0.2,4.6c-1.3,1.1-2.8,1.6-4.4,1.6c-3.7,0-5.6-1.6-5.6-4.7c0-0.5,0.1-1.1,0.2-1.8l1-5.5C277.7,36.4,277.7,35.9,277.7,35.6z M308.3,41.9c0,0.7,0.4,1.1,1.1,1.1s1.3-0.1,1.8-0.4l-0.2,4.6c-1.3,1.1-2.8,1.6-4.4,1.6c-3,0-4.7-1.1-5-3.3c-1.4,2.2-3.4,3.3-6,3.3c-4.5,0-6.7-1.9-6.7-5.8c0-0.7,0.1-1.4,0.2-2.2l0.9-4.8c0.4-2.5,1.4-4.4,3-5.9c1.6-1.5,3.8-2.2,6.6-2.2c1.7,0,3.1,0.4,4.1,1.1l2.1-12h7l-4.3,24.4C308.3,41.5,308.3,41.7,308.3,41.9z M296.2,39.9c-0.1,0.2-0.1,0.6-0.1,1s0.2,0.9,0.6,1.3c0.4,0.4,1.1,0.6,2.1,0.6c1,0,1.8-0.4,2.5-1.2l1.2-6.9c-0.3-0.7-1-1-2.1-1c-2.1,0-3.3,1-3.7,3L296.2,39.9z M322.2,41.9c0,0.7,0.4,1.1,1.1,1.1s1.3-0.1,1.8-0.4l-0.2,4.6c-1.3,1.1-2.8,1.6-4.4,1.6c-2.5,0-4.1-0.6-4.9-1.7c-0.5-0.7-0.7-1.5-0.7-2.4s0.1-1.6,0.2-2.3l4.5-25.3h7l-4.3,24.4C322.2,41.5,322.2,41.7,322.2,41.9z M335.5,39.4c-0.1,0.5-0.1,1-0.1,1.5c0,1.3,0.7,2,2.2,2c1.2,0,2.2-0.4,3-1.3l2.3-13.1h7l-3.6,20.4c-0.6,3.5-2,6.2-4.1,8.3c-2.2,2-4.6,3-7.4,3c-2.8,0-4.8-0.5-6-1.5c-1.2-1-1.8-2.3-1.8-4c0-2.3,1.4-4.4,4.3-6.2c-1.6-0.4-2.5-1.2-3-2.3c-0.2-0.7-0.4-1.4-0.4-2.2s0.1-1.7,0.2-2.5l2.3-13h7L335.5,39.4z M335.7,54.3c1.8,0,2.9-1.6,3.5-4.9l0.4-2.4c-3.8,1.8-5.7,3.6-5.7,5.4c0,0.5,0.2,1,0.5,1.3C334.7,54.1,335.2,54.3,335.7,54.3z M119.8,76.6h-4.9l-1.6,9h-7.4l5.2-29.6h12.5c3.1,0,5.3,0.7,6.6,2.1c1,1.1,1.4,2.5,1.4,4.2c0,0.6-0.1,1.2-0.2,1.8l-0.8,4.6c-0.4,2.3-1.6,4.1-3.6,5.6C125.1,75.8,122.7,76.6,119.8,76.6z M121.1,62.4h-3.7l-1.4,7.8h3.7c2.2,0,3.6-1,3.9-3l0.3-1.7c0.1-0.2,0.1-0.6,0.1-1c0-0.4-0.2-0.9-0.6-1.4C122.9,62.6,122.2,62.4,121.1,62.4z M152.2,70c0,0.9-0.2,1.8-0.5,2.7c-0.3,0.9-0.6,1.5-0.9,1.9l-0.5,0.6h-6.2c0.7-0.6,1-1.4,1-2.3c0-0.5-0.2-0.9-0.5-1.2c-0.3-0.3-0.7-0.5-1.3-0.5c-0.9,0-1.7,0.5-2.4,1.4l-2.3,13h-7l3.5-19.8h6.5l-0.5,2.8c1.6-2.2,3.5-3.3,5.7-3.3c1.8,0,3.1,0.4,4,1.3C151.8,67.3,152.2,68.5,152.2,70z M165.7,65.2c3,0,5.2,0.6,6.7,1.9c1.2,1,1.8,2.4,1.8,4.2c0,0.6-0.1,1.3-0.2,2l-0.9,4.8c-0.5,2.9-1.7,5-3.6,6.2c-1.9,1.2-4.4,1.8-7.6,1.8c-3.2,0-5.5-0.6-7-1.8c-1.1-0.9-1.6-2.3-1.6-4.1c0-0.6,0.1-1.3,0.2-2.1l0.9-4.8C155.2,67.9,159,65.2,165.7,65.2z M166.8,74.2c0.1-0.3,0.1-0.6,0.1-1s-0.2-0.9-0.5-1.4c-0.4-0.5-1-0.8-1.9-0.8s-1.6,0.3-2.2,0.9c-0.6,0.6-1,1.4-1.2,2.4l-0.5,3.1c-0.1,0.3-0.1,0.6-0.1,1s0.2,0.9,0.5,1.4c0.4,0.5,1,0.7,1.9,0.7c0.9,0,1.6-0.3,2.2-0.9c0.6-0.6,1-1.4,1.2-2.2L166.8,74.2z M194.5,86.3c0,4-1,7.3-3.1,9.8c-2,2.6-4.8,3.8-8.3,3.8c-3.5,0-5.8-0.9-7-2.6c-0.7-1.1-1.1-2.4-1.1-4c0-1.6,0.1-3.1,0.4-4.7l5.3-29.8h7l-1.2,6.9h10.2l-1,5.8h-8.1c1.9,1.6,3.6,3.6,4.9,6.1C193.8,80.2,194.5,83,194.5,86.3z M186.3,92.1c0.6-1.4,0.9-3.2,0.9-5.4c0-2.2-0.2-4.5-0.7-6.8s-1-4.1-1.6-5.3l-2.5,14.1c-0.2,1-0.2,1.8-0.2,2.5c0,2,0.6,3,1.9,3C185,94.1,185.7,93.4,186.3,92.1z M215.8,86.3c0,4-1,7.3-3.1,9.8c-2,2.6-4.8,3.8-8.3,3.8c-3.5,0-5.8-0.9-7-2.6c-0.7-1.1-1.1-2.4-1.1-4c0-1.6,0.1-3.1,0.4-4.7l5.3-29.8h7l-1.2,6.9h10.2l-1,5.8H209c1.9,1.6,3.6,3.6,4.9,6.1C215.2,80.2,215.8,83,215.8,86.3z M207.7,92.1c0.6-1.4,0.9-3.2,0.9-5.4c0-2.2-0.2-4.5-0.7-6.8c-0.5-2.3-1-4.1-1.6-5.3l-2.5,14.1c-0.2,1-0.2,1.8-0.2,2.5c0,2,0.6,3,1.9,3C206.4,94.1,207.1,93.4,207.7,92.1z M227.6,86.1c-5.7,0-8.6-2-8.6-5.9c0-0.5,0.1-1.1,0.2-1.8l0.9-5.1c0.5-2.6,1.7-4.7,3.6-6.1c2-1.4,4.6-2.1,7.8-2.1c5.5,0,8.3,2.1,8.3,6.3c0,0.6-0.1,1.3-0.2,2l-0.5,2.9h-12.5l-0.2,0.9c-0.1,0.3-0.1,0.6-0.1,0.9c0,1.5,0.9,2.3,2.7,2.3c0.7,0,1.2-0.2,1.7-0.6c0.5-0.4,0.7-0.9,0.8-1.4l6.8,0.1C237.4,83.6,233.8,86.1,227.6,86.1z M232.5,73.8c0.1-0.5,0.2-0.9,0.2-1.3c0-0.4-0.2-0.8-0.5-1.2c-0.4-0.4-0.9-0.6-1.7-0.6c-0.8,0-1.5,0.3-2.1,0.8c-0.6,0.5-1.1,1.3-1.3,2.3H232.5z M262.5,70.1c0,0.9-0.3,1.7-0.8,2.5H255c0.2-0.2,0.3-0.4,0.3-0.8c0-0.4-0.2-0.7-0.7-0.9c-0.4-0.2-1-0.4-1.7-0.4c-2.1,0-3.1,0.6-3.1,1.9c0,0.5,0.4,0.8,1.2,1.1c0.8,0.2,1.7,0.4,2.8,0.5c1.1,0.1,2.2,0.3,3.3,0.6c1.1,0.3,2,0.8,2.8,1.5s1.2,1.8,1.2,3.1c0,2.3-0.9,4-2.7,5.2c-1.8,1.2-4.5,1.8-8,1.8c-3.5,0-5.9-0.6-7.3-1.7c-1.1-0.9-1.6-2.1-1.6-3.6c0-0.4,0-0.9,0.1-1.4l6.9-0.1c-0.1,0.4,0.2,0.7,0.7,1c0.5,0.3,1.3,0.4,2.2,0.4s1.7-0.1,2.1-0.3c0.4-0.2,0.7-0.6,0.7-1.2c0-0.4-0.4-0.7-1.2-0.8c-0.8-0.2-1.7-0.3-2.8-0.4c-1.1-0.1-2.2-0.3-3.3-0.5c-1.1-0.2-2-0.8-2.8-1.6c-0.8-0.8-1.2-1.8-1.2-3.1c0-2.5,1-4.4,2.9-5.8c1.9-1.3,4.7-2,8.4-2C259.7,65.2,262.5,66.8,262.5,70.1z M285.1,70.1c0,0.9-0.3,1.7-0.8,2.5h-6.7c0.2-0.2,0.3-0.4,0.3-0.8c0-0.4-0.2-0.7-0.7-0.9c-0.4-0.2-1-0.4-1.7-0.4c-2.1,0-3.1,0.6-3.1,1.9c0,0.5,0.4,0.8,1.2,1.1c0.8,0.2,1.7,0.4,2.8,0.5c1.1,0.1,2.2,0.3,3.3,0.6c1.1,0.3,2,0.8,2.8,1.5s1.2,1.8,1.2,3.1c0,2.3-0.9,4-2.7,5.2c-1.8,1.2-4.5,1.8-8,1.8c-3.5,0-5.9-0.6-7.3-1.7c-1.1-0.9-1.6-2.1-1.6-3.6c0-0.4,0-0.9,0.1-1.4l6.9-0.1c-0.1,0.4,0.2,0.7,0.7,1c0.5,0.3,1.3,0.4,2.2,0.4s1.7-0.1,2.1-0.3c0.4-0.2,0.7-0.6,0.7-1.2c0-0.4-0.4-0.7-1.2-0.8c-0.8-0.2-1.7-0.3-2.8-0.4c-1.1-0.1-2.2-0.3-3.3-0.5c-1.1-0.2-2-0.8-2.8-1.6c-0.8-0.8-1.2-1.8-1.2-3.1c0-2.5,1-4.4,2.9-5.8c1.9-1.3,4.7-2,8.4-2C282.3,65.2,285.1,66.8,285.1,70.1z M295.8,80.3c0.6,0,1.2-0.1,1.7-0.4l-0.2,4.6c-1.3,1.1-2.8,1.6-4.4,1.6c-2.5,0-4.1-0.6-4.9-1.7c-0.5-0.8-0.7-1.6-0.7-2.4c0-0.9,0.1-1.6,0.2-2.3l2.5-13.9h7l-2.3,13c0,0.2,0,0.3,0,0.5C294.6,79.9,295,80.3,295.8,80.3z M290.7,59.1c0-1.8,0.4-3,1.2-3.8c0.8-0.8,2-1.2,3.6-1.2c2.3,0,3.5,1,3.5,3c0,1.7-0.4,3-1.2,3.8c-0.8,0.8-2,1.2-3.7,1.2C291.9,62,290.7,61.1,290.7,59.1z M312.3,65.2c3,0,5.2,0.6,6.7,1.9c1.2,1,1.8,2.4,1.8,4.2c0,0.6-0.1,1.3-0.2,2l-0.9,4.8c-0.5,2.9-1.7,5-3.6,6.2c-1.9,1.2-4.4,1.8-7.6,1.8c-3.2,0-5.5-0.6-7-1.8c-1.1-0.9-1.6-2.3-1.6-4.1c0-0.6,0.1-1.3,0.2-2.1l0.9-4.8C301.8,67.9,305.6,65.2,312.3,65.2z M313.4,74.2c0.1-0.3,0.1-0.6,0.1-1s-0.2-0.9-0.5-1.4c-0.4-0.5-1-0.8-1.9-0.8c-0.9,0-1.6,0.3-2.2,0.9c-0.6,0.6-1,1.4-1.2,2.4l-0.5,3.1c-0.1,0.3-0.1,0.6-0.1,1s0.2,0.9,0.5,1.4c0.4,0.5,1,0.7,1.9,0.7c0.9,0,1.6-0.3,2.2-0.9c0.6-0.6,1-1.4,1.2-2.2L313.4,74.2z M336.4,72.9c0-1.2-0.6-1.8-1.7-1.8s-2.1,0.4-2.8,1.3l-2.3,13.1h-7l3.5-19.8h6.5l-0.5,2.4c1.6-2,3.7-3,6.1-3c2.5,0,4.1,0.6,4.8,1.8c0.5,0.8,0.7,1.6,0.7,2.6c0,1-0.1,1.9-0.2,2.8l-1.1,6.3c0,0.2,0,0.3,0,0.5c0,0.7,0.4,1.1,1.2,1.1c0.6,0,1.2-0.1,1.7-0.4l-0.2,4.6c-1.3,1.1-2.8,1.6-4.4,1.6c-3.7,0-5.6-1.6-5.6-4.7c0-0.5,0.1-1.1,0.2-1.8l1-5.5C336.4,73.7,336.4,73.3,336.4,72.9z M367,79.2c0,0.7,0.4,1.1,1.1,1.1s1.3-0.1,1.8-0.4l-0.2,4.6c-1.3,1.1-2.8,1.6-4.4,1.6c-3,0-4.7-1.1-5-3.3c-1.4,2.2-3.4,3.3-6,3.3c-4.5,0-6.7-1.9-6.7-5.8c0-0.7,0.1-1.4,0.2-2.2l0.9-4.8c0.4-2.5,1.4-4.4,3-5.9c1.6-1.5,3.6-2.2,6.2-2.2s4.3,0.6,5.2,1.8l0.2-1.2h6.3l-2.3,13C367.1,78.9,367,79.1,367,79.2z M354.9,77.3c-0.1,0.2-0.1,0.6-0.1,1s0.2,0.9,0.6,1.3s1.1,0.6,2.1,0.6c1,0,1.8-0.4,2.5-1.2l1.2-6.9c-0.3-0.7-1-1-2.1-1c-2.1,0-3.3,1-3.7,3L354.9,77.3z M380.2,79.2c0,0.7,0.4,1.1,1.1,1.1c0.7,0,1.3-0.1,1.8-0.4l-0.2,4.6c-1.3,1.1-2.8,1.6-4.4,1.6c-2.5,0-4.1-0.6-4.9-1.7c-0.5-0.7-0.7-1.5-0.7-2.4s0.1-1.6,0.2-2.3l4.5-25.3h7l-4.3,24.4C380.2,78.9,380.2,79.1,380.2,79.2z M406.2,70.1c0,0.9-0.3,1.7-0.8,2.5h-6.7c0.2-0.2,0.3-0.4,0.3-0.8c0-0.4-0.2-0.7-0.7-0.9c-0.4-0.2-1-0.4-1.7-0.4c-2.1,0-3.1,0.6-3.1,1.9c0,0.5,0.4,0.8,1.2,1.1c0.8,0.2,1.7,0.4,2.8,0.5c1.1,0.1,2.2,0.3,3.3,0.6c1.1,0.3,2,0.8,2.8,1.5c0.8,0.8,1.2,1.8,1.2,3.1c0,2.3-0.9,4-2.7,5.2c-1.8,1.2-4.5,1.8-8,1.8c-3.5,0-5.9-0.6-7.3-1.7c-1.1-0.9-1.6-2.1-1.6-3.6c0-0.4,0-0.9,0.1-1.4l6.9-0.1c-0.1,0.4,0.2,0.7,0.7,1c0.5,0.3,1.3,0.4,2.2,0.4c1,0,1.7-0.1,2.1-0.3c0.4-0.2,0.7-0.6,0.7-1.2c0-0.4-0.4-0.7-1.2-0.8c-0.8-0.2-1.7-0.3-2.8-0.4c-1.1-0.1-2.2-0.3-3.3-0.5c-1.1-0.2-2.1-0.8-2.8-1.6c-0.8-0.8-1.2-1.8-1.2-3.1c0-2.5,1-4.4,2.9-5.8c1.9-1.3,4.7-2,8.4-2C403.4,65.2,406.2,66.8,406.2,70.1z"/>
<path fill="#7022A1" d="M74,50c-2.4-4.1-5.7-7.2-9.5-9.4c0.1,9-4.5,17.8-12.9,22.6c-8.3,4.8-18.1,4.4-25.8,0c0,4.3,1.1,8.7,3.4,12.7c7.1,12.3,22.9,16.6,35.3,9.4C76.9,78.2,81.1,62.4,74,50z"/>
<path fill="#3A45C8" d="M50.7,71.4c0.7-2.7,1-5.5,0.8-8.1c-8.3,4.7-18,4.4-25.7,0c0,4.3,1.1,8.7,3.4,12.7c2.6,4.6,6.5,8,10.9,10.2C45.2,82.7,49.1,77.6,50.7,71.4z"/>
<path fill="#8A239C" d="M51.6,63.2c-0.5-9.2-5.9-17.5-14.3-21.7c-7.4,5-11.5,13.2-11.5,21.6C33.5,67.6,43.3,68,51.6,63.2z"/>
<path fill="#741C92" d="M18.6,57c0.5,0.7,1.1,1.3,1.7,1.9c0.1,0.1,0.3,0.3,0.4,0.4c1.6,1.5,3.3,2.8,5.1,3.9c0,0,0,0,0,0c-0.1-8.4,4-16.6,11.4-21.6c-1.5-0.7-3.1-1.4-4.7-1.8C25.6,37.9,18.7,39,13,42.3c0.1,0.9,0.2,1.9,0.3,2.8c0,0.1,0,0.2,0.1,0.3c0.1,0.8,0.3,1.6,0.5,2.4c0.1,0.2,0.1,0.4,0.2,0.6c0.2,0.7,0.5,1.4,0.8,2.1c0.1,0.2,0.2,0.4,0.2,0.6c0.4,0.9,0.8,1.8,1.3,2.6c0.5,0.9,1.1,1.8,1.8,2.6C18.3,56.6,18.5,56.8,18.6,57z"/>
<path fill="#A51189" d="M38.7,40.6c-0.5,0.3-1,0.6-1.4,1c8.4,4.1,13.8,12.5,14.3,21.7c0,0,0,0,0.1,0c8.3-4.8,13-13.6,12.9-22.6C56.8,36.2,47,35.8,38.7,40.6z"/>
<path fill="#0D37B3" d="M29.3,75.8c-2.3-4-3.4-8.4-3.4-12.7c-3.8-2.2-7.1-5.4-9.5-9.4c-2.1-3.6-3.2-7.5-3.4-11.5C7.2,45.6,2.7,51.1,0.9,58c-3.7,13.8,4.5,27.9,18.2,31.6c7.5,2,15.1,0.5,21.1-3.5C35.8,83.9,31.9,80.4,29.3,75.8z"/>
<path fill="#6D016E" d="M61.1,27.9c-7.1-12.3-22.9-16.6-35.3-9.4c-8.7,5-13.4,14.4-12.8,23.8c5.7-3.3,12.7-4.4,19.5-2.5c1.7,0.5,3.3,1.1,4.8,1.8c0.5-0.3,0.9-0.7,1.4-1c8.3-4.8,18.1-4.4,25.8,0C64.5,36.3,63.4,31.9,61.1,27.9z"/>
</svg>
