<svg class="logo-bizone logo__v3" x="0px" y="0px" viewBox="0 0 437.7 100" enable-background="new 0 0 437.7 100" xml:space="preserve">
<path fill="#FFFFFF" d="M175,61.6c0,10.7-8.5,16.9-24.8,16.9h-32.1V42.4l14.3-15.1h-14.3V16.5h30.3c15.5,0,23.5,6.5,23.5,16.1
	c0,6.2-3.2,11-8.2,13.7C170.6,48.5,175,53.8,175,61.6z M132.4,27.3v14.6h14.3c7,0,10.8-2.5,10.8-7.4s-3.8-7.3-10.8-7.3H132.4z
	 M160.6,60.1c0-5.2-4-7.7-11.4-7.7h-16.8v15.3h16.8C156.6,67.7,160.6,65.4,160.6,60.1z M183.3,16.5c0-4.3,3.5-7.7,8.6-7.7
	c5.1,0,8.6,3.2,8.6,7.4c0,4.6-3.5,8-8.6,8C186.7,24.2,183.3,20.8,183.3,16.5z M185,30.8h13.8v47.7H185V30.8z M262.9,66.8v11.7h-54.3
	v-9.3l34.1-41.1h-33.3V16.5h52.2v9.3l-34,41.1H262.9z M267,54.7c0-14.4,11.1-24.6,26.3-24.6c15.2,0,26.2,10.2,26.2,24.6
	c0,14.4-11,24.6-26.2,24.6C278.1,79.3,267,69.1,267,54.7z M305.4,54.7c0-8.2-5.2-13.2-12.1-13.2c-6.9,0-12.2,5-12.2,13.2
	c0,8.2,5.3,13.2,12.2,13.2C300.2,67.9,305.4,62.9,305.4,54.7z M377.4,51.2v27.3h-13.8V53.4c0-7.7-3.5-11.3-9.7-11.3
	c-6.7,0-11.4,4.1-11.4,12.9v23.6h-13.8V30.8h13.2v5.6c3.7-4.1,9.3-6.3,15.8-6.3C368.9,30.1,377.4,36.7,377.4,51.2z M436.9,58.6
	h-36.1c1.3,5.9,6.4,9.6,13.7,9.6c5.1,0,8.7-1.5,12-4.6l7.4,8c-4.4,5.1-11.1,7.7-19.7,7.7c-16.5,0-27.2-10.4-27.2-24.6
	c0-14.3,10.9-24.6,25.5-24.6c14,0,24.8,9.4,24.8,24.7C437.2,55.9,437,57.4,436.9,58.6z M400.7,50.5h23.5c-1-6-5.5-9.9-11.7-9.9
	C406.2,40.6,401.6,44.4,400.7,50.5z"/>
<path fill="#B6037A" d="M45.2,38.3L18.4,11.6C14.2,7.3,17.2,0,23.2,0h53.6c6,0,9.1,7.3,4.8,11.6L54.8,38.3
	C52.1,41,47.9,41,45.2,38.3z"/>
<path fill="#FF2696" d="M38.3,54.8L11.6,81.6C7.3,85.8,0,82.8,0,76.8V23.2c0-6,7.3-9.1,11.6-4.8l26.8,26.8
	C41,47.9,41,52.1,38.3,54.8z"/>
<path fill="#003FBE" d="M54.8,61.7l26.8,26.8c4.3,4.3,1.2,11.6-4.8,11.6H23.2c-6,0-9.1-7.3-4.8-11.6l26.8-26.8
	C47.9,59,52.1,59,54.8,61.7z M61.7,54.8l26.8,26.8c4.3,4.3,11.6,1.2,11.6-4.8V23.2c0-6-7.3-9.1-11.6-4.8L61.7,45.2
	C59,47.9,59,52.1,61.7,54.8z"/>
    </svg>