<svg class="logo-bizone logo__v4" x="0px" y="0px" viewBox="0 0 455 100" enable-background="new 0 0 437.7 100" xml:space="preserve">
<g>
	<g>
		<path fill="#FFFFFF" d="M79.4,73.7c0,15-11.9,23.6-34.6,23.6H0V46.9l19.9-21.1H0V10.8h42.3c21.6,0,32.8,9,32.8,22.5
			c0,8.7-4.4,15.3-11.5,19C73.2,55.4,79.4,62.8,79.4,73.7z M19.9,25.8v20.4h19.9c9.8,0,15.1-3.5,15.1-10.3s-5.3-10.1-15.1-10.1H19.9
			z M59.2,71.6c0-7.3-5.6-10.8-15.9-10.8H19.9v21.4h23.4C53.6,82.2,59.2,79,59.2,71.6z"/>
		<path fill="#FFFFFF" d="M90.9,10.8c0-6.1,4.8-10.8,12-10.8c7.2,0,12,4.4,12,10.4c0,6.4-4.8,11.1-12,11.1
			C95.7,21.5,90.9,16.8,90.9,10.8z M93.2,30.8h19.3v66.5H93.2V30.8z"/>
		<path fill="#FFFFFF" d="M207.5,64c0-20,15.4-34.2,36.6-34.2c21.1,0,36.5,14.2,36.5,34.2c0,20-15.3,34.2-36.5,34.2
			C223,98.3,207.5,84,207.5,64z M261.1,64c0-11.5-7.3-18.4-16.9-18.4c-9.6,0-17.1,6.9-17.1,18.4c0,11.5,7.4,18.4,17.1,18.4
			C253.8,82.4,261.1,75.5,261.1,64z"/>
		<path fill="#FFFFFF" d="M361.4,59.2v38.1h-19.3V62.2c0-10.8-4.9-15.7-13.5-15.7c-9.3,0-15.9,5.7-15.9,17.9v32.9h-19.3V30.8h18.4
			v7.8c5.2-5.7,13-8.8,22-8.8C349.6,29.8,361.4,38.9,361.4,59.2z"/>
		<path fill="#FFFFFF" d="M444.4,69.5h-50.3c1.9,8.3,8.9,13.3,19,13.3c7,0,12.1-2.1,16.7-6.4L440,87.5c-6.2,7-15.4,10.8-27.4,10.8
			c-23,0-37.9-14.5-37.9-34.2c0-19.9,15.2-34.2,35.5-34.2c19.5,0,34.6,13.1,34.6,34.5C444.7,65.8,444.5,67.9,444.4,69.5z
			 M393.8,58.2h32.8c-1.4-8.4-7.7-13.8-16.3-13.8C401.5,44.4,395.2,49.7,393.8,58.2z"/>
	</g>
	<g>
		<polygon fill="#FF2696" points="201.8,31.8 139.1,99.2 127.2,80.2 188.7,12.7 		"/>
		<rect x="127" y="12.7" fill="#B6037A" width="75" height="20.3"/>
		<rect x="127.2" y="78.7" fill="#003FBE" width="74.7" height="21.3"/>
	</g>
</g>
    </svg>